{"title":"The.Soloist.2009.DVDRIP.XviD-ZEKTORM","uid":5015404,"size":752364588,"categoryP":"video","categoryS":"movies","magnet":"?xt=urn:btih:4824c45e90af54c753cd1f0114b9137a1488644d&amp;dn=The.Soloist.2009.DVDRIP.XviD-ZEKTORM&amp;tr=udp%3A%2F%2Ftracker.openbittorrent.com%3A80&amp;tr=udp%3A%2F%2Fopen.demonii.com%3A1337&amp;tr=udp%3A%2F%2Ftracker.coppersurfer.tk%3A6969&amp;tr=udp%3A%2F%2Fexodus.desync.com%3A6969","seeders":15,"leechers":5,"uploader":"blowley","files":5,"time":1248201037,"description":"Title                            : The Soloist\nYear                             : 2009\nGenre                            : Drama | Biography | Music\niMDB URL                         : http://www.imdb.com/title/tt0821642/\n\nComplete name                    : TS-ZEKTORM.avi\nFormat                           : AVI\nFile size                        : 701 MiB\nDuration                         : 1h 57mn\nOverall bit rate                 : 837 Kbps\nSubtitles                        : English, Spanish, French (Format: VobSub)\nSource                           : DVD NTSC\n\nVideo\nFormat                           : MPEG-4 Visual\nFormat profile                   : Streaming Video@L1\nCodec ID                         : XVID\nCodec ID/Hint                    : XviD\nDuration                         : 1h 57mn\nBit rate                         : 718 Kbps\nWidth                            : 720 pixels\nHeight                           : 304 pixels\nDisplay aspect ratio             : 2.35\nFrame rate                       : 23.976 fps\nResolution                       : 24 bits\nColorimetry                      : 4:2:0\nScan type                        : Progressive\nBits/(Pixel*Frame)               : 0.137\nStream size                      : 601 MiB (86%)\nWriting library                  : XviD\n\nAudio\nFormat                           : MPEG Audio\nFormat version                   : Version 1\nFormat profile                   : Layer 3\nCodec ID                         : 55\nCodec ID/Hint                    : MP3\nDuration                         : 1h 57mn\nBit rate mode                    : Variable\nBit rate                         : 106 Kbps\nMinimum bit rate                 : 128 Kbps\nChannel(s)                       : 2 channels\nSampling rate                    : 48.0 KHz\nResolution                       : 16 bits\nStream size                      : 88.9 MiB (13%)\nWriting library                  : LAME3.98r\nEncoding settings                : ABR\n","torrent":{"xt":"urn:btih:4824c45e90af54c753cd1f0114b9137a1488644d","amp;dn":"The.Soloist.2009.DVDRIP.XviD-ZEKTORM","amp;tr":["udp%3A%2F%2Ftracker.openbittorrent.com%3A80","udp%3A%2F%2Fopen.demonii.com%3A1337","udp%3A%2F%2Ftracker.coppersurfer.tk%3A6969","udp%3A%2F%2Fexodus.desync.com%3A6969"],"infoHash":"4824c45e90af54c753cd1f0114b9137a1488644d","infoHashBuffer":{"type":"Buffer","data":[72,36,196,94,144,175,84,199,83,205,31,1,20,185,19,122,20,136,100,77]},"announce":[],"urlList":[]}}